<?xml version="1.0" standalone="no"?>
<!DOCTYPE svg PUBLIC "-//W3C//DTD SVG 20010904//EN"
 "http://www.w3.org/TR/2001/REC-SVG-20010904/DTD/svg10.dtd">
<svg version="1.0" xmlns="http://www.w3.org/2000/svg"
 width="494.000000pt" height="494.000000pt" viewBox="0 0 494.000000 494.000000"
 preserveAspectRatio="xMidYMid meet">
<metadata>
Created by potrace 1.14, written by Peter Selinger 2001-2017
</metadata>
<g transform="translate(0.000000,494.000000) scale(0.100000,-0.100000)"
fill="#000000" stroke="none">
<path d="M2309 4316 c-2 -2 -35 -7 -74 -10 -38 -4 -77 -9 -85 -11 -8 -2 -31
-6 -50 -9 -19 -4 -53 -11 -75 -16 -22 -6 -49 -13 -59 -15 -11 -2 -42 -12 -70
-21 -59 -18 -68 -21 -78 -23 -37 -8 -260 -112 -270 -126 -4 -5 -8 -6 -8 -2 0
5 -12 -1 -26 -12 -15 -12 -33 -21 -40 -21 -8 0 -14 -4 -14 -8 0 -5 -15 -16
-32 -25 -41 -21 -68 -38 -86 -54 -7 -7 -41 -34 -75 -60 -34 -25 -83 -68 -109
-94 -27 -26 -48 -45 -48 -43 0 4 -70 -72 -133 -146 -47 -55 -187 -263 -187
-277 0 -6 -7 -16 -15 -23 -8 -7 -15 -21 -15 -31 0 -11 -4 -19 -10 -19 -5 0
-10 -4 -10 -10 0 -5 -11 -33 -24 -62 -34 -77 -44 -103 -65 -166 -39 -120 -50
-159 -56 -192 -3 -19 -8 -44 -12 -55 -3 -11 -7 -31 -8 -45 -2 -14 -7 -47 -11
-75 -11 -64 -11 -382 -1 -460 6 -49 20 -126 32 -180 8 -39 18 -77 33 -125 9
-30 17 -57 17 -60 3 -20 67 -172 106 -250 46 -95 158 -268 221 -345 56 -68
220 -230 285 -281 91 -72 151 -114 163 -114 5 0 10 -3 10 -7 0 -5 26 -21 58
-38 31 -16 59 -32 62 -35 5 -5 99 -52 110 -55 3 -1 25 -11 50 -22 25 -11 63
-26 85 -33 22 -7 49 -17 60 -21 29 -13 203 -57 250 -65 22 -3 42 -7 46 -9 29
-18 436 -27 552 -12 236 31 545 131 680 220 15 10 27 15 27 10 0 -4 4 -3 8 2
9 13 111 75 123 75 5 0 9 4 9 8 0 5 21 23 48 40 50 33 95 69 147 117 18 17 41
37 51 46 10 8 47 47 82 85 34 38 71 78 82 89 11 12 20 24 20 28 0 4 8 16 18
26 27 30 34 40 90 128 28 45 52 87 52 92 0 6 5 11 10 11 6 0 9 3 8 8 -1 4 17
45 39 92 86 178 124 305 169 560 10 59 13 381 3 450 -12 86 -36 215 -50 265
-25 87 -71 220 -89 254 -10 20 -18 39 -18 44 -3 32 -164 302 -218 364 -10 12
-28 34 -39 50 -26 37 -231 242 -274 273 -18 14 -42 33 -52 43 -11 9 -22 17
-27 17 -4 0 -19 11 -33 24 -14 13 -35 27 -47 30 -12 4 -22 11 -22 16 0 4 -8
10 -17 14 -10 3 -34 15 -53 27 -70 44 -251 129 -272 129 -8 0 -18 4 -23 8 -15
12 -134 49 -172 53 -5 1 -15 5 -23 9 -9 5 -36 11 -60 15 -25 4 -47 8 -50 10
-3 1 -25 6 -50 9 -25 3 -56 9 -70 12 -28 6 -395 16 -401 10z"/>
</g>
</svg>
